HIERARCHY
ROOT hip
{
  OFFSET 0 90.174 2.4664
  CHANNELS 6 Xposition Yposition Zposition Zrotation Xrotation Yrotation
  JOINT abdomen
  {
    OFFSET 0 -1.186 -1.5018
    CHANNELS 6 Xposition Yposition Zposition Zrotation Xrotation Yrotation
    JOINT abdomen2
    {
      OFFSET 0 9.964 0.2134
      CHANNELS 6 Xposition Yposition Zposition Zrotation Xrotation Yrotation
      JOINT chest
      {
        OFFSET 0 13.134 -3.2573
        CHANNELS 6 Xposition Yposition Zposition Zrotation Xrotation Yrotation
        JOINT neck
        {
          OFFSET 0 20.686 -1.6905
          CHANNELS 6 Xposition Yposition Zposition Zrotation Xrotation Yrotation
          JOINT head
          {
            OFFSET 0 7.238 -0.1237
            CHANNELS 6 Xposition Yposition Zposition Zrotation Xrotation Yrotation
            End Site
            {
              OFFSET 0 0 0
            }
          }
        }
        JOINT lCollar
        {
          OFFSET 1.7069 20.075 5.0056
          CHANNELS 6 Xposition Yposition Zposition Zrotation Xrotation Yrotation
          JOINT lShldr
          {
            OFFSET 13.6458 -0.047 -4.849
            CHANNELS 6 Xposition Yposition Zposition Zrotation Xrotation Yrotation
            JOINT lForeArm
            {
              OFFSET 28.3255 -0.9759 2.2888
              CHANNELS 6 Xposition Yposition Zposition Zrotation Xrotation Yrotation
              JOINT lHand
              {
                OFFSET 22.1583 -0.53 10.8316
                CHANNELS 6 Xposition Yposition Zposition Zrotation Xrotation Yrotation
                JOINT lThumb1
                {
                  OFFSET 0.786 0.112 2.5817
                  CHANNELS 6 Xposition Yposition Zposition Zrotation Xrotation Yrotation
                  JOINT lThumb2
                  {
                    OFFSET 0.3601 -0.878 4.2331
                    CHANNELS 6 Xposition Yposition Zposition Zrotation Xrotation Yrotation
                    JOINT lThumb2_End
                    {
                      OFFSET 1.8127 -1.216 2.2227
                      CHANNELS 6 Xposition Yposition Zposition Zrotation Xrotation Yrotation
                      End Site
                      {
                        OFFSET 0.0181 -0.0122 0.0222
                      }
                    }
                  }
                }
                JOINT lCarpal1
                {
                  OFFSET 0.9571 1.114 1.7695
                  CHANNELS 6 Xposition Yposition Zposition Zrotation Xrotation Yrotation
                  JOINT lIndex1
                  {
                    OFFSET 4.1246 0.487 4.1451
                    CHANNELS 6 Xposition Yposition Zposition Zrotation Xrotation Yrotation
                    JOINT lIndex2
                    {
                      OFFSET 3.4052 -1.454 2.7682
                      CHANNELS 6 Xposition Yposition Zposition Zrotation Xrotation Yrotation
                      JOINT lIndex2_End
                      {
                        OFFSET 1.4531 -1.795 1.2713
                        CHANNELS 6 Xposition Yposition Zposition Zrotation Xrotation Yrotation
                        End Site
                        {
                          OFFSET 0.0145 -0.0179 0.0127
                        }
                      }
                    }
                  }
                  JOINT lMid1
                  {
                    OFFSET 5.6954 0.21 2.1184
                    CHANNELS 6 Xposition Yposition Zposition Zrotation Xrotation Yrotation
                    JOINT lMid2
                    {
                      OFFSET 3.9766 -1.54 2.3863
                      CHANNELS 6 Xposition Yposition Zposition Zrotation Xrotation Yrotation
                      JOINT lMid2_End
                      {
                        OFFSET 1.4042 -1.926 1.125
                        CHANNELS 6 Xposition Yposition Zposition Zrotation Xrotation Yrotation
                        End Site
                        {
                          OFFSET 0.014 -0.0193 0.0113
                        }
                      }
                    }
                  }
                }
                JOINT lCarpal2
                {
                  OFFSET 2.0956 0.66 -0.3894
                  CHANNELS 6 Xposition Yposition Zposition Zrotation Xrotation Yrotation
                  JOINT lRing1
                  {
                    OFFSET 5.0395 -0.09 2.4971
                    CHANNELS 6 Xposition Yposition Zposition Zrotation Xrotation Yrotation
                    JOINT lRing2
                    {
                      OFFSET 3.7921 -1.552 1.4806
                      CHANNELS 6 Xposition Yposition Zposition Zrotation Xrotation Yrotation
                      JOINT lRing2_End
                      {
                        OFFSET 1.4655 -1.808 0.9609
                        CHANNELS 6 Xposition Yposition Zposition Zrotation Xrotation Yrotation
                        End Site
                        {
                          OFFSET 0.0147 -0.0181 0.0096
                        }
                      }
                    }
                  }
                  JOINT lPinky1
                  {
                    OFFSET 4.9141 -1.269 0.3591
                    CHANNELS 6 Xposition Yposition Zposition Zrotation Xrotation Yrotation
                    JOINT lPinky2
                    {
                      OFFSET 3.1477 -1.685 0.8462
                      CHANNELS 6 Xposition Yposition Zposition Zrotation Xrotation Yrotation
                      JOINT lPinky2_End
                      {
                        OFFSET 0.8055 -1.585 0.7955
                        CHANNELS 6 Xposition Yposition Zposition Zrotation Xrotation Yrotation
                        End Site
                        {
                          OFFSET 0.0081 -0.0158 0.008
                        }
                      }
                    }
                  }
                }
              }
            }
          }
        }
        JOINT rCollar
        {
          OFFSET -1.7069 20.075 5.0056
          CHANNELS 6 Xposition Yposition Zposition Zrotation Xrotation Yrotation
          JOINT rShldr
          {
            OFFSET -13.6458 -0.047 -4.849
            CHANNELS 6 Xposition Yposition Zposition Zrotation Xrotation Yrotation
            JOINT rForeArm
            {
              OFFSET -28.3255 -0.9759 2.2888
              CHANNELS 6 Xposition Yposition Zposition Zrotation Xrotation Yrotation
              JOINT rHand
              {
                OFFSET -22.1583 -0.53 10.8316
                CHANNELS 6 Xposition Yposition Zposition Zrotation Xrotation Yrotation
                JOINT rThumb1
                {
                  OFFSET -0.786 0.112 2.5817
                  CHANNELS 6 Xposition Yposition Zposition Zrotation Xrotation Yrotation
                  JOINT rThumb2
                  {
                    OFFSET -0.3601 -0.878 4.2331
                    CHANNELS 6 Xposition Yposition Zposition Zrotation Xrotation Yrotation
                    JOINT rThumb2_End
                    {
                      OFFSET -1.8127 -1.216 2.2227
                      CHANNELS 6 Xposition Yposition Zposition Zrotation Xrotation Yrotation
                      End Site
                      {
                        OFFSET -0.0181 -0.0122 0.0222
                      }
                    }
                  }
                }
                JOINT rCarpal1
                {
                  OFFSET -0.9571 1.114 1.7695
                  CHANNELS 6 Xposition Yposition Zposition Zrotation Xrotation Yrotation
                  JOINT rIndex1
                  {
                    OFFSET -4.1246 0.487 4.1451
                    CHANNELS 6 Xposition Yposition Zposition Zrotation Xrotation Yrotation
                    JOINT rIndex2
                    {
                      OFFSET -3.4052 -1.454 2.7682
                      CHANNELS 6 Xposition Yposition Zposition Zrotation Xrotation Yrotation
                      JOINT rIndex2_End
                      {
                        OFFSET -1.4531 -1.795 1.2713
                        CHANNELS 6 Xposition Yposition Zposition Zrotation Xrotation Yrotation
                        End Site
                        {
                          OFFSET -0.0145 -0.018 0.0127
                        }
                      }
                    }
                  }
                  JOINT rMid1
                  {
                    OFFSET -5.6954 0.21 2.1184
                    CHANNELS 6 Xposition Yposition Zposition Zrotation Xrotation Yrotation
                    JOINT rMid2
                    {
                      OFFSET -3.9766 -1.54 2.3863
                      CHANNELS 6 Xposition Yposition Zposition Zrotation Xrotation Yrotation
                      JOINT rMid2_End
                      {
                        OFFSET -1.4042 -1.926 1.125
                        CHANNELS 6 Xposition Yposition Zposition Zrotation Xrotation Yrotation
                        End Site
                        {
                          OFFSET -0.014 -0.0193 0.0113
                        }
                      }
                    }
                  }
                }
                JOINT rCarpal2
                {
                  OFFSET -2.0956 0.66 -0.3894
                  CHANNELS 6 Xposition Yposition Zposition Zrotation Xrotation Yrotation
                  JOINT rRing1
                  {
                    OFFSET -5.0395 -0.09 2.4971
                    CHANNELS 6 Xposition Yposition Zposition Zrotation Xrotation Yrotation
                    JOINT rRing2
                    {
                      OFFSET -3.7921 -1.552 1.4806
                      CHANNELS 6 Xposition Yposition Zposition Zrotation Xrotation Yrotation
                      JOINT rRing2_End
                      {
                        OFFSET -1.4655 -1.808 0.9609
                        CHANNELS 6 Xposition Yposition Zposition Zrotation Xrotation Yrotation
                        End Site
                        {
                          OFFSET -0.0147 -0.0181 0.0096
                        }
                      }
                    }
                  }
                  JOINT rPinky1
                  {
                    OFFSET -4.9141 -1.269 0.3592
                    CHANNELS 6 Xposition Yposition Zposition Zrotation Xrotation Yrotation
                    JOINT rPinky2
                    {
                      OFFSET -3.1477 -1.685 0.8462
                      CHANNELS 6 Xposition Yposition Zposition Zrotation Xrotation Yrotation
                      JOINT rPinky2_End
                      {
                        OFFSET -0.8055 -1.585 0.7955
                        CHANNELS 6 Xposition Yposition Zposition Zrotation Xrotation Yrotation
                        End Site
                        {
                          OFFSET -0.0081 -0.0158 0.008
                        }
                      }
                    }
                  }
                }
              }
            }
          }
        }
      }
    }
  }
  JOINT lThigh
  {
    OFFSET 8.367 -8.2066 0.5982
    CHANNELS 6 Xposition Yposition Zposition Zrotation Xrotation Yrotation
    JOINT lShin
    {
      OFFSET 2.1923 -43.463 -0.4932
      CHANNELS 6 Xposition Yposition Zposition Zrotation Xrotation Yrotation
      JOINT lFoot
      {
        OFFSET 0.7333 -45.8593 -2.6451
        CHANNELS 6 Xposition Yposition Zposition Zrotation Xrotation Yrotation
        End Site
        {
          OFFSET 2.6618 -4.2699 12.3931
        }
      }
    }
  }
  JOINT rThigh
  {
    OFFSET -8.367 -8.2066 0.5982
    CHANNELS 6 Xposition Yposition Zposition Zrotation Xrotation Yrotation
    JOINT rShin
    {
      OFFSET -2.1923 -43.463 -0.4931
      CHANNELS 6 Xposition Yposition Zposition Zrotation Xrotation Yrotation
      JOINT rFoot
      {
        OFFSET -0.7333 -45.8593 -2.6451
        CHANNELS 6 Xposition Yposition Zposition Zrotation Xrotation Yrotation
        End Site
        {
          OFFSET -2.6618 -4.2699 12.3931
        }
      }
    }
  }
}
MOTION
Frames:	4
Frame Time:	0.0333333
0 90.174 2.4664 0 0 -0 0 -1.186 -1.5018 0 0 -0 0 9.964 0.2134 0 0 -0 0 13.134 -3.2573 0 0 -0 0 20.686 -1.6905 0 0 -0 0 7.238 -0.1237 0 0 -0 1.7069 20.075 5.0056 0 0 -0 13.6458 -0.047 -4.849 1.66051 0.0835086 5.75766 28.3255 -0.9759 2.2888 -0.0175111 0.895433 15.7816 22.1583 -0.53 10.8316 7.95139e-016 -1.98785e-016 -0 0.786 0.112 2.5817 5.46658e-016 -3.97569e-016 -0 0.3601 -0.878 4.2331 5.96354e-016 0 -0 1.8127 -1.216 2.2227 3.97569e-016 1.98785e-016 9.54166e-015 0.9571 1.114 1.7695 1.49089e-016 -3.97569e-016 -0 4.1246 0.487 4.1451 6.4605e-016 0 3.18055e-015 3.4052 -1.454 2.7682 5.96354e-016 0 3.18055e-015 1.4531 -1.795 1.2713 8.94531e-016 -1.98785e-016 6.36111e-015 5.6954 0.21 2.1184 6.4605e-016 0 3.18055e-015 3.9766 -1.54 2.3863 5.96354e-016 0 3.18055e-015 1.4042 -1.926 1.125 8.94531e-016 -1.98785e-016 6.36111e-015 2.0956 0.66 -0.3894 1.49089e-016 -3.97569e-016 -0 5.0395 -0.09 2.4971 6.4605e-016 0 3.18055e-015 3.7921 -1.552 1.4806 5.96354e-016 0 3.18055e-015 1.4655 -1.808 0.9609 8.94531e-016 -1.98785e-016 6.36111e-015 4.9141 -1.269 0.3591 6.4605e-016 0 3.18055e-015 3.1477 -1.685 0.8462 5.96354e-016 0 3.18055e-015 0.8055 -1.585 0.7955 8.94531e-016 -1.98785e-016 6.36111e-015 -1.7069 20.075 5.0056 0 0 -0 -13.6458 -0.047 -4.849 -1.4496 0.0636048 -5.0245 -28.3255 -0.9759 2.2888 -1.74811 1.20616 -16.8394 -22.1583 -0.53 10.8316 -1.19271e-015 1.98785e-016 -3.18055e-015 -0.786 0.112 2.5817 -3.97569e-016 1.98785e-016 -3.18055e-015 -0.3601 -0.878 4.2331 -2.98177e-016 1.98785e-016 -3.18055e-015 -1.8127 -1.216 2.2227 -2.98177e-016 3.97569e-016 -0 -0.9571 1.114 1.7695 4.96962e-016 0 -6.36111e-015 -4.1246 0.487 4.1451 -9.93923e-017 3.97569e-016 -0 -3.4052 -1.454 2.7682 -8.94531e-016 5.96354e-016 -0 -1.4531 -1.795 1.2713 -3.97569e-016 3.97569e-016 -0 -5.6954 0.21 2.1184 -9.93923e-017 3.97569e-016 -0 -3.9766 -1.54 2.3863 -8.94531e-016 5.96354e-016 -0 -1.4042 -1.926 1.125 -3.97569e-016 3.97569e-016 -0 -2.0956 0.66 -0.3894 4.96962e-016 0 -6.36111e-015 -5.0395 -0.09 2.4971 -9.93923e-017 3.97569e-016 -0 -3.7921 -1.552 1.4806 -8.94531e-016 5.96354e-016 -0 -1.4655 -1.808 0.9609 -3.97569e-016 3.97569e-016 -0 -4.9141 -1.269 0.3592 -9.93923e-017 3.97569e-016 -0 -3.1477 -1.685 0.8462 -8.94531e-016 5.96354e-016 -0 -0.8055 -1.585 0.7955 -3.97569e-016 3.97569e-016 -0 8.367 -8.2066 0.5982 -4.66115 -1.03232 0.120763 2.1923 -43.463 -0.4932 0.00990601 1.55097 0.177175 0.7333 -45.8593 -2.6451 4.65196 -0.54114 -0.255042 -8.367 -8.2066 0.5982 4.66115 -1.03222 -0.120763 -2.1923 -43.463 -0.4931 -0.00990459 1.5509 -0.177176 -0.7333 -45.8593 -2.6451 -4.65196 -0.541171 0.255041 
2.75183 41.2621 31.5067 -5.52494e-015 12.0025 180 0 -1.186 -1.5018 -0.161854 9.08969 -0.148373 4.44089e-016 9.964 0.2134 -0.3054 18.1798 -0.275666 0 13.134 -3.2573 -0.3054 18.1798 -0.275666 -8.88178e-016 20.686 -1.6905 -7.40489e-007 -15.0017 -5.36751e-007 0 7.238 -0.1237 -1.8504e-008 -2.42892 4.55666e-008 1.7069 20.075 5.0056 -18.316 -15.6413 46.7727 13.6458 -0.047 -4.849 -54.4607 -3.47962 -95.9515 28.3255 -0.9759 2.2888 -9.17797 18.3444 -74.4 22.1583 -0.53 10.8316 17.0098 -68.2156 43.8213 0.786 0.112 2.5817 -3.18055e-015 -2.98177e-015 1.59028e-015 0.3601 -0.878 4.2331 2.20062e-006 1.61405e-006 1.56628e-006 1.8127 -1.216 2.2227 -3.18055e-015 3.57812e-015 -1.59028e-015 0.9571 1.114 1.7695 -3.18055e-015 3.97569e-016 1.59028e-015 4.1246 0.487 4.1451 -7.95139e-015 2.34566e-014 1.11319e-014 3.4052 -1.454 2.7682 2.20062e-006 1.61405e-006 1.56628e-006 1.4531 -1.795 1.2713 4.77083e-015 7.35503e-015 -0 5.6954 0.21 2.1184 -7.95139e-015 2.34566e-014 1.11319e-014 3.9766 -1.54 2.3863 2.20062e-006 1.61405e-006 1.56628e-006 1.4042 -1.926 1.125 4.77083e-015 7.35503e-015 -0 2.0956 0.66 -0.3894 -3.18055e-015 3.97569e-016 1.59028e-015 5.0395 -0.09 2.4971 -7.95139e-015 2.34566e-014 1.11319e-014 3.7921 -1.552 1.4806 2.20062e-006 1.61405e-006 1.56628e-006 1.4655 -1.808 0.9609 4.77083e-015 7.35503e-015 -0 4.9141 -1.269 0.3591 -7.95139e-015 2.34566e-014 1.11319e-014 3.1477 -1.685 0.8462 2.20062e-006 1.61405e-006 1.56628e-006 0.8055 -1.585 0.7955 4.77083e-015 7.35503e-015 -0 -1.7069 20.075 5.0056 22.4842 -17.6531 -60.3036 -13.6458 -0.047 -4.849 51.3489 0.32687 99.3061 -28.3255 -0.9759 2.2888 8.08945 20.8203 84.8752 -22.1583 -0.53 10.8316 -31.6451 -71.3657 -58.0858 -0.786 0.112 2.5817 4.77083e-015 3.37934e-015 -1.59028e-015 -0.3601 -0.878 4.2331 3.18055e-015 1.98785e-016 -0 -1.8127 -1.216 2.2227 3.18055e-015 -5.96354e-016 1.59028e-015 -0.9571 1.114 1.7695 3.18055e-015 3.18055e-015 -0 -4.1246 0.487 4.1451 4.77083e-015 -2.40529e-014 3.18055e-015 -3.4052 -1.454 2.7682 1.59028e-015 1.59028e-015 -0 -1.4531 -1.795 1.2713 1.59028e-015 1.98785e-016 1.59028e-015 -5.6954 0.21 2.1184 4.77083e-015 -2.40529e-014 3.18055e-015 -3.9766 -1.54 2.3863 1.59028e-015 1.59028e-015 -0 -1.4042 -1.926 1.125 1.59028e-015 1.98785e-016 1.59028e-015 -2.0956 0.66 -0.3894 3.18055e-015 3.18055e-015 -0 -5.0395 -0.09 2.4971 4.77083e-015 -2.40529e-014 3.18055e-015 -3.7921 -1.552 1.4806 1.59028e-015 1.59028e-015 -0 -1.4655 -1.808 0.9609 1.59028e-015 1.98785e-016 1.59028e-015 -4.9141 -1.269 0.3592 4.77083e-015 -2.40529e-014 3.18055e-015 -3.1477 -1.685 0.8462 1.59028e-015 1.59028e-015 -0 -0.8055 -1.585 0.7955 1.59028e-015 1.98785e-016 1.59028e-015 8.367 -8.2066 0.5982 7.41956 -10.8939 19.0949 2.1923 -43.463 -0.4932 153.455 66.6262 -150.622 0.7333 -45.8593 -2.6451 -19.8449 47.9752 22.5415 -8.367 -8.2066 0.5982 -8.41153 -9.9955 -19.2561 -2.1923 -43.463 -0.4931 -154.153 65.5652 151.226 -0.7333 -45.8593 -2.6451 17.9864 46.5878 -20.1895 
2.75183 41.2619 31.5063 -5.52526e-015 12 180 0 -1.186 -1.5018 -0.162539 8.86225 -0.146855 0 9.964 0.2134 -0.30739 17.7249 -0.272899 -4.44089e-016 13.134 -3.2573 -0.30739 17.7249 -0.272899 0 20.686 -1.6905 -3.10927e-005 -13.9268 -6.73142e-006 0 7.238 -0.1237 -1.51283e-007 -4.83353 4.52818e-008 1.7069 20.075 5.0056 -18.7099 -14.6753 46.9781 13.6458 -0.047 -4.849 -54.4607 -3.47963 -95.9515 28.3255 -0.9759 2.2888 -9.17798 18.3444 -74.4 22.1583 -0.53 10.8316 16.9139 -67.851 43.9759 0.786 0.112 2.5817 3.18055e-015 -1.59028e-015 1.59028e-015 0.3601 -0.878 4.2331 -1.59028e-015 -2.98177e-015 -0 1.8127 -1.216 2.2227 -1.59028e-015 -4.37326e-015 -0 0.9571 1.114 1.7695 1.59028e-015 1.39149e-015 -0 4.1246 0.487 4.1451 -1.59028e-015 1.70955e-014 3.18055e-015 3.4052 -1.454 2.7682 -3.18055e-015 -4.96962e-015 -0 1.4531 -1.795 1.2713 -1.59028e-015 -4.77083e-015 1.59028e-015 5.6954 0.21 2.1184 -1.59028e-015 1.70955e-014 3.18055e-015 3.9766 -1.54 2.3863 -3.18055e-015 -4.96962e-015 -0 1.4042 -1.926 1.125 -1.59028e-015 -4.77083e-015 1.59028e-015 2.0956 0.66 -0.3894 1.59028e-015 1.39149e-015 -0 5.0395 -0.09 2.4971 -1.59028e-015 1.70955e-014 3.18055e-015 3.7921 -1.552 1.4806 -3.18055e-015 -4.96962e-015 -0 1.4655 -1.808 0.9609 -1.59028e-015 -4.77083e-015 1.59028e-015 4.9141 -1.269 0.3591 -1.59028e-015 1.70955e-014 3.18055e-015 3.1477 -1.685 0.8462 -3.18055e-015 -4.96962e-015 -0 0.8055 -1.585 0.7955 -1.59028e-015 -4.77083e-015 1.59028e-015 -1.7069 20.075 5.0056 22.7852 -16.7578 -60.7162 -13.6458 -0.047 -4.849 51.3489 0.326865 99.3061 -28.3255 -0.9759 2.2888 8.08947 20.8202 84.8752 -22.1583 -0.53 10.8316 -31.1287 -71.1171 -57.8239 -0.786 0.112 2.5817 3.18055e-015 -7.95139e-015 -1.59028e-015 -0.3601 -0.878 4.2331 -2.1435e-006 1.64891e-006 -1.53188e-006 -1.8127 -1.216 2.2227 -5.93592e-006 1.15433e-006 -4.47892e-006 -0.9571 1.114 1.7695 1.59028e-015 -1.59028e-015 -1.59028e-015 -4.1246 0.487 4.1451 3.18055e-015 -2.8625e-014 1.59028e-015 -3.4052 -1.454 2.7682 -2.1435e-006 1.64891e-006 -1.53188e-006 -1.4531 -1.795 1.2713 -5.93592e-006 1.15433e-006 -4.47892e-006 -5.6954 0.21 2.1184 3.18055e-015 -2.8625e-014 1.59028e-015 -3.9766 -1.54 2.3863 -2.1435e-006 1.64891e-006 -1.53188e-006 -1.4042 -1.926 1.125 -5.93592e-006 1.15433e-006 -4.47892e-006 -2.0956 0.66 -0.3894 1.59028e-015 -1.59028e-015 -1.59028e-015 -5.0395 -0.09 2.4971 3.18055e-015 -2.8625e-014 1.59028e-015 -3.7921 -1.552 1.4806 -2.1435e-006 1.64891e-006 -1.53188e-006 -1.4655 -1.808 0.9609 -5.93592e-006 1.15433e-006 -4.47892e-006 -4.9141 -1.269 0.3592 3.18055e-015 -2.8625e-014 1.59028e-015 -3.1477 -1.685 0.8462 -2.1435e-006 1.64891e-006 -1.53188e-006 -0.8055 -1.585 0.7955 -5.93592e-006 1.15433e-006 -4.47892e-006 8.367 -8.2066 0.5982 7.41961 -10.8935 19.0949 2.1923 -43.463 -0.4932 153.454 66.6266 -150.622 0.7333 -45.8593 -2.6451 -19.8449 47.9752 22.5415 -8.367 -8.2066 0.5982 -8.41152 -9.9955 -19.2561 -2.1923 -43.463 -0.4931 -154.153 65.5652 151.226 -0.7333 -45.8593 -2.6451 17.9864 46.5878 -20.1894 
2.75183 41.2619 31.5063 -5.52526e-015 12 180 0 -1.186 -1.5018 -0.163146 8.63318 -0.145301 0 9.964 0.2134 -0.309215 17.2667 -0.27009 0 13.134 -3.2573 -0.309216 17.2667 -0.27009 8.88178e-016 20.686 -1.6905 -6.8363e-008 -12.851 -1.49332e-008 -8.88178e-016 7.238 -0.1237 2.91408e-008 -7.25006 -1.06997e-008 1.7069 20.075 5.0056 -19.1061 -13.7098 47.1897 13.6458 -0.047 -4.849 -54.4607 -3.47962 -95.9515 28.3255 -0.9759 2.2888 -9.17798 18.3444 -74.4 22.1583 -0.53 10.8316 16.817 -67.4864 44.1298 0.786 0.112 2.5817 0 3.18055e-015 -0 0.3601 -0.878 4.2331 -1.54487e-031 2.78299e-015 3.18055e-015 1.8127 -1.216 2.2227 0 0 -0 0.9571 1.114 1.7695 1.59028e-015 -1.98785e-016 -1.59028e-015 4.1246 0.487 4.1451 1.59028e-015 2.18663e-015 6.36111e-015 3.4052 -1.454 2.7682 -1.59028e-015 2.18663e-015 -0 1.4531 -1.795 1.2713 -1.59028e-015 5.96354e-015 1.59028e-015 5.6954 0.21 2.1184 1.59028e-015 2.18663e-015 6.36111e-015 3.9766 -1.54 2.3863 -1.59028e-015 2.18663e-015 -0 1.4042 -1.926 1.125 -1.59028e-015 5.96354e-015 1.59028e-015 2.0956 0.66 -0.3894 1.59028e-015 -1.98785e-016 -1.59028e-015 5.0395 -0.09 2.4971 1.59028e-015 2.18663e-015 6.36111e-015 3.7921 -1.552 1.4806 -1.59028e-015 2.18663e-015 -0 1.4655 -1.808 0.9609 -1.59028e-015 5.96354e-015 1.59028e-015 4.9141 -1.269 0.3591 1.59028e-015 2.18663e-015 6.36111e-015 3.1477 -1.685 0.8462 -1.59028e-015 2.18663e-015 -0 0.8055 -1.585 0.7955 -1.59028e-015 5.96354e-015 1.59028e-015 -1.7069 20.075 5.0056 23.0918 -15.8638 -61.1322 -13.6458 -0.047 -4.849 51.3489 0.326868 99.3062 -28.3255 -0.9759 2.2888 8.08947 20.8202 84.8752 -22.1583 -0.53 10.8316 -30.6222 -70.8677 -57.572 -0.786 0.112 2.5817 6.36111e-015 -2.98177e-015 -3.18055e-015 -0.3601 -0.878 4.2331 7.95139e-015 -6.55989e-015 -6.36111e-015 -1.8127 -1.216 2.2227 6.36111e-015 -9.93923e-016 -3.18055e-015 -0.9571 1.114 1.7695 -1.59028e-015 2.5842e-015 3.18055e-015 -4.1246 0.487 4.1451 1.11319e-014 -2.88238e-014 -0 -3.4052 -1.454 2.7682 4.77083e-015 -3.37934e-015 -6.36111e-015 -1.4531 -1.795 1.2713 6.36111e-015 -7.95139e-015 -7.95139e-015 -5.6954 0.21 2.1184 1.11319e-014 -2.88238e-014 -0 -3.9766 -1.54 2.3863 4.77083e-015 -3.37934e-015 -6.36111e-015 -1.4042 -1.926 1.125 6.36111e-015 -7.95139e-015 -7.95139e-015 -2.0956 0.66 -0.3894 -1.59028e-015 2.5842e-015 3.18055e-015 -5.0395 -0.09 2.4971 1.11319e-014 -2.88238e-014 -0 -3.7921 -1.552 1.4806 4.77083e-015 -3.37934e-015 -6.36111e-015 -1.4655 -1.808 0.9609 6.36111e-015 -7.95139e-015 -7.95139e-015 -4.9141 -1.269 0.3592 1.11319e-014 -2.88238e-014 -0 -3.1477 -1.685 0.8462 4.77083e-015 -3.37934e-015 -6.36111e-015 -0.8055 -1.585 0.7955 6.36111e-015 -7.95139e-015 -7.95139e-015 8.367 -8.2066 0.5982 7.41962 -10.8935 19.0949 2.1923 -43.463 -0.4932 153.454 66.6266 -150.622 0.7333 -45.8593 -2.6451 -19.8449 47.9752 22.5415 -8.367 -8.2066 0.5982 -8.41152 -9.9955 -19.2561 -2.1923 -43.463 -0.4931 -154.153 65.5652 151.226 -0.7333 -45.8593 -2.6451 17.9864 46.5878 -20.1894 
